<svg xmlns="http://www.w3.org/2000/svg" xmlns:xlink="http://www.w3.org/1999/xlink" viewBox="0 0 393.23 274.54"><defs><style>.cls-1,.cls-43{fill:#613dc1;}.cls-2{fill:url(#Sfumatura_senza_nome_41);}.cls-3{fill:url(#Sfumatura_senza_nome_41-2);}.cls-4{fill:url(#Sfumatura_senza_nome_41-3);}.cls-5{fill:url(#Sfumatura_senza_nome_41-4);}.cls-6{fill:url(#Sfumatura_senza_nome_41-5);}.cls-7{fill:url(#Sfumatura_senza_nome_41-6);}.cls-8{fill:url(#Sfumatura_senza_nome_41-7);}.cls-9{fill:url(#Sfumatura_senza_nome_41-8);}.cls-10{fill:url(#Sfumatura_senza_nome_41-9);}.cls-11{fill:url(#Sfumatura_senza_nome_41-10);}.cls-12{fill:url(#Sfumatura_senza_nome_41-11);}.cls-13{fill:url(#Sfumatura_senza_nome_41-12);}.cls-14{fill:url(#Sfumatura_senza_nome_41-13);}.cls-15{fill:url(#Sfumatura_senza_nome_41-14);}.cls-16{fill:url(#Sfumatura_senza_nome_41-15);}.cls-17{fill:url(#Sfumatura_senza_nome_41-16);}.cls-18{fill:url(#Sfumatura_senza_nome_41-17);}.cls-19{fill:url(#Sfumatura_senza_nome_41-18);}.cls-20{fill:url(#Sfumatura_senza_nome_41-19);}.cls-21{fill:url(#Sfumatura_senza_nome_41-20);}.cls-22{fill:url(#Sfumatura_senza_nome_41-21);}.cls-23{fill:url(#Sfumatura_senza_nome_41-22);}.cls-24{fill:url(#Sfumatura_senza_nome_41-23);}.cls-25{fill:url(#Sfumatura_senza_nome_41-24);}.cls-26{fill:url(#Sfumatura_senza_nome_41-25);}.cls-27{fill:url(#Sfumatura_senza_nome_41-26);}.cls-28{fill:url(#Sfumatura_senza_nome_41-27);}.cls-29{fill:url(#Sfumatura_senza_nome_41-28);}.cls-30{fill:url(#Sfumatura_senza_nome_41-29);}.cls-31{fill:url(#Sfumatura_senza_nome_41-30);}.cls-32{fill:url(#Sfumatura_senza_nome_41-31);}.cls-33{fill:url(#Sfumatura_senza_nome_41-32);}.cls-34{fill:url(#Sfumatura_senza_nome_41-33);}.cls-35{fill:url(#Sfumatura_senza_nome_41-34);}.cls-36{fill:url(#Sfumatura_senza_nome_41-35);}.cls-37{fill:url(#Sfumatura_senza_nome_41-36);}.cls-38{fill:url(#Sfumatura_senza_nome_41-37);}.cls-39{fill:url(#Sfumatura_senza_nome_41-38);}.cls-40{fill:url(#Sfumatura_senza_nome_41-39);}.cls-41{fill:url(#Sfumatura_senza_nome_41-40);}.cls-42{fill:url(#Sfumatura_senza_nome_41-41);}.cls-43,.cls-70{opacity:0.52;}.cls-43,.cls-44{isolation:isolate;}.cls-44,.cls-45{fill:#fff;}.cls-44{opacity:0.27;}.cls-46{fill:url(#Sfumatura_senza_nome_65);}.cls-47{fill:url(#Sfumatura_senza_nome_65-2);}.cls-48{fill:url(#Sfumatura_senza_nome_65-3);}.cls-49{fill:url(#Sfumatura_senza_nome_65-4);}.cls-50{fill:url(#Sfumatura_senza_nome_65-5);}.cls-51{fill:url(#Sfumatura_senza_nome_65-6);}.cls-52{fill:url(#Sfumatura_senza_nome_65-7);}.cls-53{fill:url(#Sfumatura_senza_nome_65-8);}.cls-54{fill:url(#Sfumatura_senza_nome_65-9);}.cls-55{fill:url(#Sfumatura_senza_nome_65-10);}.cls-56{fill:url(#Sfumatura_senza_nome_65-11);}.cls-57{fill:url(#Sfumatura_senza_nome_65-12);}.cls-58{fill:url(#Sfumatura_senza_nome_65-13);}.cls-59{fill:url(#Sfumatura_senza_nome_65-14);}.cls-60{fill:url(#Sfumatura_senza_nome_65-15);}.cls-61{fill:url(#Sfumatura_senza_nome_65-16);}.cls-62{fill:url(#Sfumatura_senza_nome_65-17);}.cls-63{fill:url(#Sfumatura_senza_nome_65-18);}.cls-64{fill:url(#Sfumatura_senza_nome_65-19);}.cls-65{fill:url(#Sfumatura_senza_nome_65-20);}.cls-66{fill:url(#Sfumatura_senza_nome_65-21);}.cls-67{fill:url(#Sfumatura_senza_nome_65-22);}.cls-68{fill:url(#Sfumatura_senza_nome_65-23);}.cls-69{fill:url(#Sfumatura_senza_nome_65-24);}.cls-71{fill:#ffb4a3;}</style><linearGradient id="Sfumatura_senza_nome_41" x1="222.82" y1="-1280.53" x2="224.83" y2="-1217.27" gradientTransform="translate(-31 1471.49)" gradientUnits="userSpaceOnUse"><stop offset="0" stop-color="#231f20" stop-opacity="0"/><stop offset="1" stop-color="#231f20"/></linearGradient><linearGradient id="Sfumatura_senza_nome_41-2" x1="161.66" y1="-1316.44" x2="179.64" y2="-1262.48" xlink:href="#Sfumatura_senza_nome_41"/><linearGradient id="Sfumatura_senza_nome_41-3" x1="161.67" y1="-1307.35" x2="179.65" y2="-1253.38" xlink:href="#Sfumatura_senza_nome_41"/><linearGradient id="Sfumatura_senza_nome_41-4" x1="161.67" y1="-1298.25" x2="179.65" y2="-1244.29" xlink:href="#Sfumatura_senza_nome_41"/><linearGradient id="Sfumatura_senza_nome_41-5" x1="161.66" y1="-1289.16" x2="179.64" y2="-1235.19" xlink:href="#Sfumatura_senza_nome_41"/><linearGradient id="Sfumatura_senza_nome_41-6" x1="173.38" y1="-1316.44" x2="191.37" y2="-1262.48" xlink:href="#Sfumatura_senza_nome_41"/><linearGradient id="Sfumatura_senza_nome_41-7" x1="173.39" y1="-1307.34" x2="191.38" y2="-1253.38" xlink:href="#Sfumatura_senza_nome_41"/><linearGradient id="Sfumatura_senza_nome_41-8" x1="173.39" y1="-1298.25" x2="191.38" y2="-1244.29" xlink:href="#Sfumatura_senza_nome_41"/><linearGradient id="Sfumatura_senza_nome_41-9" x1="173.38" y1="-1289.16" x2="191.38" y2="-1235.19" xlink:href="#Sfumatura_senza_nome_41"/><linearGradient id="Sfumatura_senza_nome_41-10" x1="185.11" y1="-1316.44" x2="203.09" y2="-1262.48" xlink:href="#Sfumatura_senza_nome_41"/><linearGradient id="Sfumatura_senza_nome_41-11" x1="185.12" y1="-1307.35" x2="203.1" y2="-1253.38" xlink:href="#Sfumatura_senza_nome_41"/><linearGradient id="Sfumatura_senza_nome_41-12" x1="185.12" y1="-1298.25" x2="203.1" y2="-1244.29" xlink:href="#Sfumatura_senza_nome_41"/><linearGradient id="Sfumatura_senza_nome_41-13" x1="185.11" y1="-1289.16" x2="203.1" y2="-1235.19" xlink:href="#Sfumatura_senza_nome_41"/><linearGradient id="Sfumatura_senza_nome_41-14" x1="196.83" y1="-1316.44" x2="214.83" y2="-1262.48" xlink:href="#Sfumatura_senza_nome_41"/><linearGradient id="Sfumatura_senza_nome_41-15" x1="196.83" y1="-1307.34" x2="214.83" y2="-1253.38" xlink:href="#Sfumatura_senza_nome_41"/><linearGradient id="Sfumatura_senza_nome_41-16" x1="196.83" y1="-1298.25" x2="214.83" y2="-1244.29" xlink:href="#Sfumatura_senza_nome_41"/><linearGradient id="Sfumatura_senza_nome_41-17" x1="208.56" y1="-1316.44" x2="226.55" y2="-1262.48" xlink:href="#Sfumatura_senza_nome_41"/><linearGradient id="Sfumatura_senza_nome_41-18" x1="208.56" y1="-1307.35" x2="226.55" y2="-1253.38" xlink:href="#Sfumatura_senza_nome_41"/><linearGradient id="Sfumatura_senza_nome_41-19" x1="208.57" y1="-1298.25" x2="226.56" y2="-1244.29" xlink:href="#Sfumatura_senza_nome_41"/><linearGradient id="Sfumatura_senza_nome_41-20" x1="220.28" y1="-1316.44" x2="238.27" y2="-1262.48" xlink:href="#Sfumatura_senza_nome_41"/><linearGradient id="Sfumatura_senza_nome_41-21" x1="220.29" y1="-1307.34" x2="238.28" y2="-1253.38" xlink:href="#Sfumatura_senza_nome_41"/><linearGradient id="Sfumatura_senza_nome_41-22" x1="220.29" y1="-1298.25" x2="238.28" y2="-1244.29" xlink:href="#Sfumatura_senza_nome_41"/><linearGradient id="Sfumatura_senza_nome_41-23" x1="232" y1="-1316.44" x2="249.98" y2="-1262.48" xlink:href="#Sfumatura_senza_nome_41"/><linearGradient id="Sfumatura_senza_nome_41-24" x1="232.01" y1="-1307.35" x2="249.99" y2="-1253.38" xlink:href="#Sfumatura_senza_nome_41"/><linearGradient id="Sfumatura_senza_nome_41-25" x1="232.01" y1="-1298.25" x2="249.99" y2="-1244.29" xlink:href="#Sfumatura_senza_nome_41"/><linearGradient id="Sfumatura_senza_nome_41-26" x1="243.72" y1="-1316.44" x2="261.72" y2="-1262.48" xlink:href="#Sfumatura_senza_nome_41"/><linearGradient id="Sfumatura_senza_nome_41-27" x1="243.72" y1="-1307.34" x2="261.72" y2="-1253.38" xlink:href="#Sfumatura_senza_nome_41"/><linearGradient id="Sfumatura_senza_nome_41-28" x1="243.72" y1="-1298.25" x2="261.72" y2="-1244.29" xlink:href="#Sfumatura_senza_nome_41"/><linearGradient id="Sfumatura_senza_nome_41-29" x1="255.45" y1="-1316.44" x2="273.43" y2="-1262.47" xlink:href="#Sfumatura_senza_nome_41"/><linearGradient id="Sfumatura_senza_nome_41-30" x1="255.45" y1="-1307.34" x2="273.43" y2="-1253.38" xlink:href="#Sfumatura_senza_nome_41"/><linearGradient id="Sfumatura_senza_nome_41-31" x1="255.45" y1="-1298.25" x2="273.43" y2="-1244.29" xlink:href="#Sfumatura_senza_nome_41"/><linearGradient id="Sfumatura_senza_nome_41-32" x1="255.44" y1="-1289.15" x2="273.43" y2="-1235.19" xlink:href="#Sfumatura_senza_nome_41"/><linearGradient id="Sfumatura_senza_nome_41-33" x1="267.17" y1="-1316.44" x2="285.16" y2="-1262.48" xlink:href="#Sfumatura_senza_nome_41"/><linearGradient id="Sfumatura_senza_nome_41-34" x1="267.17" y1="-1307.35" x2="285.16" y2="-1253.38" xlink:href="#Sfumatura_senza_nome_41"/><linearGradient id="Sfumatura_senza_nome_41-35" x1="267.18" y1="-1298.25" x2="285.17" y2="-1244.29" xlink:href="#Sfumatura_senza_nome_41"/><linearGradient id="Sfumatura_senza_nome_41-36" x1="267.17" y1="-1289.16" x2="285.15" y2="-1235.19" xlink:href="#Sfumatura_senza_nome_41"/><linearGradient id="Sfumatura_senza_nome_41-37" x1="278.89" y1="-1316.44" x2="296.88" y2="-1262.48" xlink:href="#Sfumatura_senza_nome_41"/><linearGradient id="Sfumatura_senza_nome_41-38" x1="278.9" y1="-1307.34" x2="296.89" y2="-1253.38" xlink:href="#Sfumatura_senza_nome_41"/><linearGradient id="Sfumatura_senza_nome_41-39" x1="278.9" y1="-1298.25" x2="296.89" y2="-1244.29" xlink:href="#Sfumatura_senza_nome_41"/><linearGradient id="Sfumatura_senza_nome_41-40" x1="278.89" y1="-1289.16" x2="296.88" y2="-1235.19" xlink:href="#Sfumatura_senza_nome_41"/><linearGradient id="Sfumatura_senza_nome_41-41" x1="216.91" y1="-1296.23" x2="216.44" y2="-1214.72" xlink:href="#Sfumatura_senza_nome_41"/><linearGradient id="Sfumatura_senza_nome_65" x1="250.02" y1="1113.45" x2="246.49" y2="924.55" gradientTransform="matrix(1, 0, 0, -1, -119.24, 1009.63)" gradientUnits="userSpaceOnUse"><stop offset="0" stop-color="#fff" stop-opacity="0"/><stop offset="0.99" stop-color="#fff"/></linearGradient><linearGradient id="Sfumatura_senza_nome_65-2" x1="240.66" y1="1103.5" x2="237.39" y2="928.85" xlink:href="#Sfumatura_senza_nome_65"/><linearGradient id="Sfumatura_senza_nome_65-3" x1="335.46" y1="1104.08" x2="332.13" y2="926.32" xlink:href="#Sfumatura_senza_nome_65"/><linearGradient id="Sfumatura_senza_nome_65-4" x1="269.5" y1="1094.17" x2="266.43" y2="931.26" xlink:href="#Sfumatura_senza_nome_65"/><linearGradient id="Sfumatura_senza_nome_65-5" x1="291.41" y1="1085.76" x2="288.54" y2="933.04" xlink:href="#Sfumatura_senza_nome_65"/><linearGradient id="Sfumatura_senza_nome_65-6" x1="348.67" y1="1084.38" x2="345.83" y2="932.17" xlink:href="#Sfumatura_senza_nome_65"/><linearGradient id="Sfumatura_senza_nome_65-7" x1="285.91" y1="1077.12" x2="283.25" y2="934.86" xlink:href="#Sfumatura_senza_nome_65"/><linearGradient id="Sfumatura_senza_nome_65-8" x1="356.37" y1="1078.81" x2="353.65" y2="933.31" xlink:href="#Sfumatura_senza_nome_65"/><linearGradient id="Sfumatura_senza_nome_65-9" x1="261.67" y1="1033.73" x2="259.22" y2="902.74" xlink:href="#Sfumatura_senza_nome_65"/><linearGradient id="Sfumatura_senza_nome_65-10" x1="253.56" y1="1027.18" x2="251.3" y2="905.91" xlink:href="#Sfumatura_senza_nome_65"/><linearGradient id="Sfumatura_senza_nome_65-11" x1="331.32" y1="1031.49" x2="328.9" y2="902.69" xlink:href="#Sfumatura_senza_nome_65"/><linearGradient id="Sfumatura_senza_nome_65-12" x1="276.98" y1="1022.84" x2="274.81" y2="907.18" xlink:href="#Sfumatura_senza_nome_65"/><linearGradient id="Sfumatura_senza_nome_65-13" x1="294.97" y1="1018.68" x2="292.89" y2="908.27" xlink:href="#Sfumatura_senza_nome_65"/><linearGradient id="Sfumatura_senza_nome_65-14" x1="342.5" y1="1016.89" x2="340.46" y2="907.82" xlink:href="#Sfumatura_senza_nome_65"/><linearGradient id="Sfumatura_senza_nome_65-15" x1="290.26" y1="1013.11" x2="288.33" y2="909.71" xlink:href="#Sfumatura_senza_nome_65"/><linearGradient id="Sfumatura_senza_nome_65-16" x1="349.15" y1="1016.4" x2="347.13" y2="908.28" xlink:href="#Sfumatura_senza_nome_65"/><linearGradient id="Sfumatura_senza_nome_65-17" x1="269.73" y1="983.18" x2="267.91" y2="885.92" xlink:href="#Sfumatura_senza_nome_65"/><linearGradient id="Sfumatura_senza_nome_65-18" x1="262.61" y1="978.33" x2="260.93" y2="888.48" xlink:href="#Sfumatura_senza_nome_65"/><linearGradient id="Sfumatura_senza_nome_65-19" x1="328.51" y1="984.25" x2="326.64" y2="885.09" xlink:href="#Sfumatura_senza_nome_65"/><linearGradient id="Sfumatura_senza_nome_65-20" x1="282.31" y1="976.39" x2="280.66" y2="889.21" xlink:href="#Sfumatura_senza_nome_65"/><linearGradient id="Sfumatura_senza_nome_65-21" x1="297.57" y1="974.37" x2="295.98" y2="889.95" xlink:href="#Sfumatura_senza_nome_65"/><linearGradient id="Sfumatura_senza_nome_65-22" x1="338.18" y1="972.44" x2="336.64" y2="889.73" xlink:href="#Sfumatura_senza_nome_65"/><linearGradient id="Sfumatura_senza_nome_65-23" x1="293.43" y1="970.41" x2="291.95" y2="891.17" xlink:href="#Sfumatura_senza_nome_65"/><linearGradient id="Sfumatura_senza_nome_65-24" x1="344.03" y1="974.38" x2="342.45" y2="889.87" xlink:href="#Sfumatura_senza_nome_65"/></defs><g id="Livello_2" data-name="Livello 2"><g id="eP2eIOVe5H"><g id="keyboard"><rect class="cls-1" x="124.07" y="155.18" width="134.88" height="52.1"/><rect class="cls-2" x="124.07" y="155.18" width="134.88" height="52.1"/><rect class="cls-1" x="124.07" y="151.95" width="134.88" height="52.1"/><rect class="cls-3" x="129.35" y="160.61" width="8.89" height="7.68"/><rect class="cls-4" x="129.35" y="169.7" width="8.89" height="7.68"/><rect class="cls-5" x="129.35" y="178.79" width="8.89" height="7.68"/><rect class="cls-6" x="129.35" y="187.9" width="8.89" height="7.68"/><rect class="cls-7" x="141.07" y="160.61" width="8.89" height="7.68"/><rect class="cls-8" x="141.07" y="169.7" width="8.89" height="7.68"/><rect class="cls-9" x="141.07" y="178.79" width="8.89" height="7.68"/><rect class="cls-10" x="141.07" y="187.9" width="8.89" height="7.68"/><rect class="cls-11" x="152.8" y="160.61" width="8.89" height="7.68"/><rect class="cls-12" x="152.8" y="169.7" width="8.89" height="7.68"/><rect class="cls-13" x="152.8" y="178.79" width="8.89" height="7.68"/><rect class="cls-14" x="152.8" y="187.9" width="8.89" height="7.68"/><rect class="cls-15" x="164.52" y="160.61" width="8.89" height="7.68"/><rect class="cls-16" x="164.52" y="169.7" width="8.89" height="7.68"/><rect class="cls-17" x="164.52" y="178.79" width="8.89" height="7.68"/><rect class="cls-18" x="176.25" y="160.61" width="8.89" height="7.68"/><rect class="cls-19" x="176.25" y="169.7" width="8.89" height="7.68"/><rect class="cls-20" x="176.25" y="178.79" width="8.89" height="7.68"/><rect class="cls-21" x="187.97" y="160.61" width="8.89" height="7.68"/><rect class="cls-22" x="187.97" y="169.7" width="8.89" height="7.68"/><rect class="cls-23" x="187.97" y="178.79" width="8.89" height="7.68"/><rect class="cls-24" x="199.69" y="160.61" width="8.89" height="7.68"/><rect class="cls-25" x="199.69" y="169.7" width="8.89" height="7.68"/><rect class="cls-26" x="199.69" y="178.79" width="8.89" height="7.68"/><rect class="cls-27" x="211.41" y="160.61" width="8.89" height="7.68"/><rect class="cls-28" x="211.41" y="169.7" width="8.89" height="7.68"/><rect class="cls-29" x="211.41" y="178.79" width="8.89" height="7.68"/><rect class="cls-30" x="223.13" y="160.61" width="8.89" height="7.68"/><rect class="cls-31" x="223.13" y="169.7" width="8.89" height="7.68"/><rect class="cls-32" x="223.13" y="178.79" width="8.89" height="7.68"/><rect class="cls-33" x="223.13" y="187.9" width="8.89" height="7.68"/><rect class="cls-34" x="234.86" y="160.61" width="8.89" height="7.68"/><rect class="cls-35" x="234.86" y="169.7" width="8.89" height="7.68"/><rect class="cls-36" x="234.86" y="178.79" width="8.89" height="7.68"/><rect class="cls-37" x="234.86" y="187.9" width="8.89" height="7.68"/><rect class="cls-38" x="246.58" y="160.61" width="8.89" height="7.68"/><rect class="cls-39" x="246.58" y="169.7" width="8.89" height="7.68"/><rect class="cls-40" x="246.58" y="178.79" width="8.89" height="7.68"/><rect class="cls-41" x="246.58" y="187.9" width="8.89" height="7.68"/><rect class="cls-42" x="151.05" y="188.4" width="69.52" height="7.53"/></g><g id="screen"><polygon class="cls-43" points="294.14 125.85 71.01 125.85 10.65 0 369.6 0 294.14 125.85"/><path class="cls-44" d="M121.12,113H33.41c-5.1,0-10.56-2.85-12.21-6.37L6.12,74.37C4.48,70.85,7.28,68,12.38,68H100.1c5.09,0,10.55,2.85,12.2,6.37l15.08,32.26c1.65,3.52-1.16,6.4-6.26,6.4Z"/><path class="cls-45" d="M115.46,121.09H27.74c-5.09,0-10.56-2.85-12.2-6.37L.46,82.46c-1.62-3.52,1.16-6.4,6.26-6.4H94.43c5.1,0,10.56,2.86,12.21,6.38l15.12,32.28c1.6,3.52-1.2,6.37-6.29,6.37Z"/><path class="cls-44" d="M277.76,84.61h87.72c5.1,0,10.56-2.86,12.21-6.37L392.76,46c1.65-3.51-1.16-6.37-6.25-6.37H298.79c-5.09,0-10.56,2.86-12.21,6.37L271.47,78.24c-1.61,3.51,1.19,6.37,6.28,6.37Z"/><path class="cls-45" d="M277.76,95.93h87.72c5.1,0,10.56-2.86,12.21-6.38l15.07-32.26c1.65-3.51-1.16-6.37-6.25-6.37H298.79c-5.09,0-10.56,2.86-12.21,6.37L271.47,89.55c-1.61,3.52,1.19,6.38,6.28,6.38Z"/><polygon class="cls-46" points="95.07 23.94 160.89 23.94 161.63 28.66 97.24 28.66 95.07 23.94"/><polygon class="cls-47" points="99.19 32.9 137.7 32.9 138.83 36.98 101.07 36.98 99.19 32.9"/><polygon class="cls-48" points="153.24 32.9 274.43 32.9 272.85 37 154.06 37 153.24 32.9"/><polygon class="cls-49" points="122.22 41.16 173.07 41.16 173.49 45.12 123.66 45.12 122.22 41.16"/><polygon class="cls-50" points="140.69 48.76 198.95 48.76 198.86 52.48 141.73 52.48 140.69 48.76"/><polygon class="cls-51" points="202.75 48.76 251.59 48.76 250.37 52.88 202.58 52.88 202.75 48.76"/><polygon class="cls-52" points="142.59 55.82 185.92 55.82 186.08 59.06 143.5 59.06 142.59 55.82"/><polygon class="cls-53" points="190.08 55.82 279.5 55.82 277.85 59.39 190.17 59.39 190.08 55.82"/><polygon class="cls-54" points="113.77 64.57 167.23 64.57 167.72 67.69 115.22 67.69 113.77 64.57"/><polygon class="cls-55" points="116.52 70.52 148.03 70.52 148.79 73.26 117.78 73.26 116.52 70.52"/><polygon class="cls-56" points="160.75 70.52 259.94 70.52 258.88 73.28 161.3 73.28 160.75 70.52"/><polygon class="cls-57" points="134.93 76.08 176.85 76.08 177.14 78.79 135.91 78.79 134.93 76.08"/><polygon class="cls-58" points="149.85 81.3 198.21 81.3 198.16 83.86 150.58 83.86 149.85 81.3"/><polygon class="cls-59" points="201.37 81.3 241.9 81.3 241.06 84.14 201.25 84.14 201.37 81.3"/><polygon class="cls-60" points="151.17 86.18 187.36 86.18 187.47 88.46 151.8 88.46 151.17 86.18"/><polygon class="cls-61" points="190.83 86.18 265.51 86.18 264.36 88.69 190.9 88.69 190.83 86.18"/><polygon class="cls-62" points="126.56 92.34 171.56 92.34 171.9 94.57 127.59 94.57 126.56 92.34"/><polygon class="cls-63" points="128.51 96.58 155.19 96.58 155.74 98.55 129.43 98.55 128.51 96.58"/><polygon class="cls-64" points="165.95 96.58 249.9 96.58 249.14 98.56 166.35 98.56 165.95 96.58"/><polygon class="cls-65" points="143.85 100.58 179.5 100.58 179.71 102.55 144.56 102.55 143.85 100.58"/><polygon class="cls-66" points="156.36 104.37 197.7 104.37 197.65 106.25 156.89 106.25 156.36 104.37"/><polygon class="cls-67" points="200.39 104.37 235.03 104.37 234.41 106.45 200.3 106.45 200.39 104.37"/><polygon class="cls-68" points="157.31 107.97 188.38 107.97 188.46 109.64 157.78 109.64 157.31 107.97"/><polygon class="cls-69" points="191.37 107.97 255.48 107.97 254.63 109.81 191.41 109.81 191.37 107.97"/><g class="cls-70"><polygon class="cls-1" points="8.48 84.77 42.27 84.77 42.65 86.56 9.6 86.56 8.48 84.77"/><polygon class="cls-1" points="10.6 88.17 30.37 88.17 30.95 89.72 11.57 89.72 10.6 88.17"/><polygon class="cls-1" points="38.34 88.17 100.57 88.17 99.75 89.73 38.77 89.73 38.34 88.17"/><polygon class="cls-1" points="22.42 91.31 48.53 91.31 48.75 92.82 23.16 92.82 22.42 91.31"/><polygon class="cls-1" points="31.9 94.21 61.82 94.21 61.77 95.61 32.44 95.61 31.9 94.21"/><polygon class="cls-1" points="63.77 94.21 88.84 94.21 88.21 95.77 63.67 95.77 63.77 94.21"/><polygon class="cls-1" points="32.88 96.89 55.13 96.89 55.21 98.12 33.35 98.12 32.88 96.89"/><polygon class="cls-1" points="57.26 96.89 103.16 96.89 102.32 98.24 57.31 98.24 57.26 96.89"/><polygon class="cls-1" points="18.09 100.21 45.52 100.21 45.78 101.41 18.82 101.41 18.09 100.21"/><polygon class="cls-1" points="19.49 102.48 35.67 102.48 36.06 103.52 20.15 103.52 19.49 102.48"/><polygon class="cls-1" points="42.21 102.48 93.13 102.48 92.58 103.52 42.48 103.52 42.21 102.48"/><polygon class="cls-1" points="28.94 104.58 50.47 104.58 50.62 105.62 29.45 105.62 28.94 104.58"/><polygon class="cls-1" points="36.62 106.57 61.44 106.57 61.41 107.54 36.98 107.54 36.62 106.57"/><polygon class="cls-1" points="63.06 106.57 83.87 106.57 83.43 107.65 62.99 107.65 63.06 106.57"/><polygon class="cls-1" points="37.28 108.43 55.87 108.43 55.92 109.29 37.61 109.29 37.28 108.43"/><polygon class="cls-1" points="57.65 108.43 95.99 108.43 95.39 109.38 57.68 109.38 57.65 108.43"/><polygon class="cls-1" points="24.66 110.77 47.75 110.77 47.94 111.62 25.17 111.62 24.66 110.77"/><polygon class="cls-1" points="25.65 112.38 39.35 112.38 39.63 113.13 26.13 113.13 25.65 112.38"/><polygon class="cls-1" points="44.88 112.38 87.97 112.38 87.58 113.13 45.08 113.13 44.88 112.38"/><polygon class="cls-1" points="33.53 113.9 51.83 113.9 51.94 114.65 33.89 114.65 33.53 113.9"/><polygon class="cls-1" points="39.95 115.34 61.17 115.34 61.14 116.05 40.22 116.05 39.95 115.34"/><polygon class="cls-1" points="62.56 115.34 80.34 115.34 80.02 116.14 62.51 116.14 62.56 115.34"/><polygon class="cls-1" points="40.44 116.71 56.39 116.71 56.43 117.35 40.68 117.35 40.44 116.71"/><polygon class="cls-1" points="57.93 116.71 90.84 116.71 90.4 117.41 57.94 117.41 57.93 116.71"/></g><g class="cls-70"><polygon class="cls-1" points="304.88 60.52 332.66 60.52 331.89 62.05 304.72 62.05 304.88 60.52"/><polygon class="cls-1" points="304.58 63.44 320.83 63.44 320.37 64.77 304.44 64.77 304.58 63.44"/><polygon class="cls-1" points="327.39 63.44 378.53 63.44 376.92 64.78 326.79 64.78 327.39 63.44"/><polygon class="cls-1" points="312.4 66.13 333.86 66.13 333.13 67.42 312.11 67.42 312.4 66.13"/><polygon class="cls-1" points="318.46 68.61 343.05 68.61 342.16 69.82 318.05 69.82 318.46 68.61"/><polygon class="cls-1" points="344.65 68.61 365.26 68.61 363.81 69.95 343.64 69.95 344.65 68.61"/><polygon class="cls-1" points="317.65 70.91 335.93 70.91 335.26 71.96 317.29 71.96 317.65 70.91"/><polygon class="cls-1" points="337.69 70.91 375.43 70.91 373.92 72.07 336.91 72.07 337.69 70.91"/><polygon class="cls-1" points="303.49 73.75 326.04 73.75 325.54 74.78 303.38 74.78 303.49 73.75"/><polygon class="cls-1" points="303.28 75.69 316.58 75.69 316.28 76.59 303.19 76.59 303.28 75.69"/><polygon class="cls-1" points="321.95 75.69 363.81 75.69 362.73 76.59 321.55 76.59 321.95 75.69"/><polygon class="cls-1" points="309.78 77.51 327.47 77.51 326.98 78.39 309.58 78.39 309.78 77.51"/><polygon class="cls-1" points="314.89 79.21 335.3 79.21 334.69 80.04 314.6 80.04 314.89 79.21"/><polygon class="cls-1" points="336.63 79.21 353.73 79.21 352.73 80.13 335.92 80.13 336.63 79.21"/><polygon class="cls-1" points="314.32 80.8 329.59 80.8 329.12 81.54 314.08 81.54 314.32 80.8"/><polygon class="cls-1" points="331.06 80.8 362.58 80.8 361.52 81.62 330.52 81.62 331.06 80.8"/><polygon class="cls-1" points="302.53 82.8 321.53 82.8 321.16 83.53 302.45 83.53 302.53 82.8"/><polygon class="cls-1" points="302.39 84.19 313.64 84.19 313.42 84.83 302.32 84.83 302.39 84.19"/><polygon class="cls-1" points="318.19 84.19 353.61 84.19 352.84 84.83 317.9 84.83 318.19 84.19"/><polygon class="cls-1" points="307.94 85.49 322.99 85.49 322.63 86.13 307.79 86.13 307.94 85.49"/><polygon class="cls-1" points="312.36 86.73 329.8 86.73 329.35 87.34 312.15 87.34 312.36 86.73"/><polygon class="cls-1" points="330.93 86.73 345.55 86.73 344.82 87.4 330.43 87.4 330.93 86.73"/><polygon class="cls-1" points="311.93 87.89 325.05 87.89 324.7 88.44 311.75 88.44 311.93 87.89"/><polygon class="cls-1" points="326.3 87.89 353.36 87.89 352.59 88.5 325.91 88.5 326.3 87.89"/></g></g><g id="hands"><path class="cls-71" d="M143.38,187.89c.24-1,.92-2.31,2-2,.55.18.81.78,1,1.31.56,1.47,2.77,3.48,3.31,5,.1-3.7.24-13.05,2.46-18.4a1.37,1.37,0,0,1,2.63.34c.86,6.08,1.42,15.92,1.77,13.91.45-2.54,1.85-22.94,5.67-20.61,1.2,3.62.35,17.64-.1,21.43,1-5,2.93-24.87,6.77-22.75,2.43,6.34-2.61,22.56-.3,28.94.43,1.17,1.34,2.43,2.6,2.34s1.91-1.42,2-2.62-.26-2.38-.17-3.58a1.85,1.85,0,0,1,.92-1.6c1.11-.48,2.05.92,2.37,2.12a31,31,0,0,1-.28,17c-1.76,5.78-5.17,10.89-8.52,15.9a7.07,7.07,0,0,1-1.68,1.93,4.57,4.57,0,0,1-1.16.55,25.48,25.48,0,0,1-9,1.28c-13.1-.72-11.9-9.16-12.94-16.38a63.41,63.41,0,0,1,.63-24.13Z"/><path class="cls-45" d="M143.56,229.09a5.48,5.48,0,0,1,2.68-2.77,6.68,6.68,0,0,1,2.18-.3,88.51,88.51,0,0,1,18.16,1.52,2.36,2.36,0,0,1,1.52.71,2.12,2.12,0,0,1,.34,1.09,19.84,19.84,0,0,1-.92,8.85,1.86,1.86,0,0,1-.7,1.07,1.93,1.93,0,0,1-1.23.11,160.19,160.19,0,0,0-18.58-1c-6.25,0-6.16-4.32-3.46-9.27Z"/><path class="cls-1" d="M166.89,274.53A243.05,243.05,0,0,1,131,269.05a7.91,7.91,0,0,1-.23-3.65,76.75,76.75,0,0,1,9.24-26,4.57,4.57,0,0,1,1.85-2,4.36,4.36,0,0,1,2-.34,113.41,113.41,0,0,1,22.68,1.75A3.24,3.24,0,0,1,170,242.4a119.4,119.4,0,0,1-3.12,32.14Z"/><path class="cls-71" d="M194,225.57c-.5-.92-.88-2.23,0-2.77a1.92,1.92,0,0,1,1.41-.16,11.63,11.63,0,0,1,4.79,2c2.21,1.54,4.62,4,7.1,2.9,2.14-1,2.33-3.89,2.19-6.25q-.71-11.84-1.42-23.67c0-.79,0-1.75.68-2.13,1-.56,2.06.78,2.5,1.85l5.66,14.32c1.08-3.45-.18-15.29.35-20.54a1.53,1.53,0,0,1,1.67-1.38,1.52,1.52,0,0,1,1.26.93c1.71,4.11,3.57,14.79,3.89,17.32.92,7.54,1.4.92,1.67-.34.67-3.14-.2-13.86,1.69-14.68,2.77.2,3.7,3.81,3.76,6.6s-1.4,13.6,1.32,14.25c1.2-3,1.11-8.49,2.73-8.7,2.53,1.16.3,12.69-.51,15.36-2.4,8-.86,6.95-3.25,14.94a14.6,14.6,0,0,1-2.59,5.54,11.59,11.59,0,0,1-5.78,3.19C209.81,247.82,199.8,236,194,225.56Z"/><path class="cls-45" d="M210.1,255a2.49,2.49,0,0,0,.82,1.85,2.66,2.66,0,0,0,1,.3,42.43,42.43,0,0,0,16.25-1.21,3.22,3.22,0,0,0,1.52-.73,3,3,0,0,0,.7-1.69c.52-3.58-1.07-7.08-2.62-10.34a.91.91,0,0,0-1.24-.64c-2.59.43-5.19.73-7.81.92-1.9.13-5-.48-6.79.25-3.46,1.43-2.2,8.16-1.86,11.29Z"/><path class="cls-1" d="M234.4,266.62a148,148,0,0,1-27.72,6.32c.12-3.7.23-7.52.55-11.23.26-3.16,3.39-9.39,7.24-9.39,3.85-1.66,8.19-1.78,12.37-1.89,1.47,0,3.11,0,4.22,1s1.32,2.36,1.55,3.7c.67,3.8,1.33,7.65,1.79,11.52Z"/></g></g></g></svg>